<?xml version="1.0" encoding="UTF-8" standalone="no"?>
<svg
   width="682.85699"
   zoomAndPan="magnify"
   viewBox="0 0 512.14275 162.13161"
   height="216.17548"
   preserveAspectRatio="xMidYMid"
   version="1.0"
   id="svg177"
   xmlns="http://www.w3.org/2000/svg"
   xmlns:svg="http://www.w3.org/2000/svg">
  <defs
     id="defs13">
    <clipPath
       id="c1d6854789">
      <path
         d="m 493.25,155.0625 h 28.90234 v 28.89844 H 493.25 Z m 0,0"
         clip-rule="nonzero"
         id="path1" />
    </clipPath>
    <clipPath
       id="dfe683ba5e">
      <path
         d="m 507.70312,155.0625 c -7.98437,0 -14.45312,6.46875 -14.45312,14.44922 0,7.98047 6.46875,14.44922 14.45312,14.44922 7.98047,0 14.44922,-6.46875 14.44922,-14.44922 0,-7.98047 -6.46875,-14.44922 -14.44922,-14.44922 z m 0,0"
         clip-rule="nonzero"
         id="path2" />
    </clipPath>
    <clipPath
       id="c500fe18f6">
      <path
         d="M 0.25,0.0625 H 29.152344 V 28.960938 H 0.25 Z m 0,0"
         clip-rule="nonzero"
         id="path3" />
    </clipPath>
    <clipPath
       id="8dc28179f3">
      <path
         d="M 14.703125,0.0625 C 6.71875,0.0625 0.25,6.53125 0.25,14.511719 c 0,7.980469 6.46875,14.449219 14.453125,14.449219 7.980469,0 14.449219,-6.46875 14.449219,-14.449219 0,-7.980469 -6.46875,-14.449219 -14.449219,-14.449219 z m 0,0"
         clip-rule="nonzero"
         id="path4" />
    </clipPath>
    <clipPath
       id="d04275043d">
      <rect
         x="0"
         width="30"
         y="0"
         height="29"
         id="rect4" />
    </clipPath>
    <clipPath
       id="0a16f10375">
      <path
         d="m 446.60937,203.35547 h 73.1875 v 36.52344 h -73.1875 z m 0,0"
         clip-rule="nonzero"
         id="path5" />
    </clipPath>
    <clipPath
       id="58c73d715b">
      <path
         d="m 446.60937,203.35547 c 0,19.89453 16.62891,36.52344 36.52344,36.52344 19.89063,0 36.51953,-16.62891 36.51953,-36.52344 H 499.375 c 0,8.84765 -7.39453,16.24219 -16.24219,16.24219 -8.84765,0 -16.24609,-7.39454 -16.24609,-16.24219 z m 0,0"
         clip-rule="nonzero"
         id="path6" />
    </clipPath>
    <clipPath
       id="5def26b81b">
      <path
         d="M 0.609375,0.355469 H 73.761719 V 36.878906 H 0.609375 Z m 0,0"
         clip-rule="nonzero"
         id="path7" />
    </clipPath>
    <clipPath
       id="8760a6508f">
      <path
         d="m 0.609375,0.355469 c 0,19.894531 16.628906,36.523437 36.523437,36.523437 19.890626,0 36.519532,-16.628906 36.519532,-36.523437 H 53.375 c 0,8.847656 -7.394531,16.242187 -16.242188,16.242187 -8.847656,0 -16.246093,-7.394531 -16.246093,-16.242187 z m 0,0"
         clip-rule="nonzero"
         id="path8" />
    </clipPath>
    <clipPath
       id="bafff08011">
      <rect
         x="0"
         width="74"
         y="0"
         height="37"
         id="rect8" />
    </clipPath>
    <clipPath
       id="5c05827892">
      <path
         d="M 0.398438,0.238281 H 484 V 245.76172 H 0.398438 Z m 0,0"
         clip-rule="nonzero"
         id="path9" />
    </clipPath>
    <clipPath
       id="d8bf3ccd21">
      <rect
         x="0"
         width="484"
         y="0"
         height="246"
         id="rect9" />
    </clipPath>
    <clipPath
       id="aafcbc6a38">
      <rect
         x="0"
         width="523"
         y="0"
         height="246"
         id="rect10" />
    </clipPath>
    <clipPath
       id="72e183c10f">
      <path
         d="m 1065.2578,430.42578 h 30.5078 v 30.50781 h -30.5078 z m 0,0"
         clip-rule="nonzero"
         id="path10" />
    </clipPath>
    <clipPath
       id="d0b52d84ec">
      <path
         d="m 1080.5117,430.42578 c -8.4219,0 -15.2539,6.82813 -15.2539,15.25391 0,8.42187 6.832,15.2539 15.2539,15.2539 8.4258,0 15.2539,-6.83203 15.2539,-15.2539 0,-8.42578 -6.8281,-15.25391 -15.2539,-15.25391 z m 0,0"
         clip-rule="nonzero"
         id="path11" />
    </clipPath>
    <clipPath
       id="e00b79d0bb">
      <path
         d="M 0.257812,0.425781 H 30.765625 V 30.933594 H 0.257812 Z m 0,0"
         clip-rule="nonzero"
         id="path12" />
    </clipPath>
    <clipPath
       id="fccfa957ea">
      <path
         d="m 15.511719,0.425781 c -8.421875,0 -15.253907,6.828125 -15.253907,15.253907 0,8.421874 6.832032,15.253906 15.253907,15.253906 8.425781,0 15.253906,-6.832032 15.253906,-15.253906 0,-8.425782 -6.828125,-15.253907 -15.253906,-15.253907 z m 0,0"
         clip-rule="nonzero"
         id="path13" />
    </clipPath>
    <clipPath
       id="ede258a38f">
      <rect
         x="0"
         width="31"
         y="0"
         height="31"
         id="rect13" />
    </clipPath>
  </defs>
  <g
     transform="translate(-11.622856,-77.747307)"
     id="g42">
    <g
       clip-path="url(#aafcbc6a38)"
       id="g41">
      <g
         clip-path="url(#c1d6854789)"
         id="g19">
        <g
           clip-path="url(#dfe683ba5e)"
           id="g18">
          <g
             transform="translate(493,155)"
             id="g17">
            <g
               clip-path="url(#d04275043d)"
               id="g16">
              <g
                 clip-path="url(#c500fe18f6)"
                 id="g15">
                <g
                   clip-path="url(#8dc28179f3)"
                   id="g14">
                  <path
                     fill="#06186a"
                     d="M 0.25,0.0625 H 29.152344 V 28.960938 H 0.25 Z m 0,0"
                     fill-opacity="1"
                     fill-rule="nonzero"
                     id="path14" />
                </g>
              </g>
            </g>
          </g>
        </g>
      </g>
      <g
         clip-path="url(#0a16f10375)"
         id="g25">
        <g
           clip-path="url(#58c73d715b)"
           id="g24">
          <g
             transform="translate(446,203)"
             id="g23">
            <g
               clip-path="url(#bafff08011)"
               id="g22">
              <g
                 clip-path="url(#5def26b81b)"
                 id="g21">
                <g
                   clip-path="url(#8760a6508f)"
                   id="g20">
                  <path
                     fill="#06186a"
                     d="M 73.652344,36.878906 H 0.609375 V 0.355469 h 73.042969 z m 0,0"
                     fill-opacity="1"
                     fill-rule="nonzero"
                     id="path19" />
                </g>
              </g>
            </g>
          </g>
        </g>
      </g>
      <g
         clip-path="url(#5c05827892)"
         id="g40">
        <g
           id="g39">
          <g
             clip-path="url(#d8bf3ccd21)"
             id="g38">
            <g
               fill="#06186a"
               fill-opacity="1"
               id="g28">
              <g
                 transform="translate(0.560349,178.66918)"
                 id="g27">
                <g
                   id="g26">
                  <path
                     d="m 71.6875,-100.5625 c 11.644531,0 20.941406,3.777344 27.890625,11.328125 6.957035,7.542969 10.437505,17.914063 10.437505,31.109375 V 0 H 79.703125 v -54.03125 c 0,-6.65625 -1.726563,-11.820312 -5.171875,-15.5 -3.449219,-3.6875 -8.085938,-5.53125 -13.90625,-5.53125 -5.824219,0 -10.460938,1.84375 -13.90625,5.53125 -3.449219,3.679688 -5.171875,8.84375 -5.171875,15.5 V 0 H 11.0625 v -99.5 h 30.484375 v 13.203125 c 3.09375,-4.40625 7.253906,-7.882813 12.484375,-10.4375 5.226562,-2.550781 11.113281,-3.828125 17.65625,-3.828125 z m 0,0"
                     id="path25" />
                </g>
              </g>
            </g>
            <g
               fill="#06186a"
               fill-opacity="1"
               id="g31">
              <g
                 transform="translate(120.71485,178.66918)"
                 id="g30">
                <g
                   id="g29">
                  <path
                     d="M 5,-49.921875 C 5,-60.148438 6.925781,-69.125 10.78125,-76.84375 c 3.863281,-7.726562 9.125,-13.671875 15.78125,-17.828125 6.65625,-4.164063 14.085938,-6.250005 22.296875,-6.250005 7.007813,0 13.160156,1.429692 18.453125,4.281255 5.289062,2.855469 9.363281,6.601563 12.21875,11.234375 V -99.5 h 30.48438 V 0 H 79.53125 V -14.09375 C 76.550781,-9.445312 72.414062,-5.695312 67.125,-2.84375 61.84375,0 55.691406,1.421875 48.671875,1.421875 40.585938,1.421875 33.21875,-0.6875 26.5625,-4.90625 19.90625,-9.125 14.644531,-15.125 10.78125,-22.90625 6.925781,-30.695312 5,-39.703125 5,-49.921875 Z M 79.53125,-49.75 c 0,-7.601562 -2.109375,-13.601562 -6.328125,-18 -4.21875,-4.40625 -9.367187,-6.609375 -15.4375,-6.609375 -6.0625,0 -11.203125,2.171875 -15.421875,6.515625 -4.21875,4.335938 -6.328125,10.308594 -6.328125,17.921875 0,7.605469 2.109375,13.636719 6.328125,18.09375 4.21875,4.460937 9.359375,6.6875 15.421875,6.6875 6.070313,0 11.21875,-2.195313 15.4375,-6.59375 4.21875,-4.40625 6.328125,-10.410156 6.328125,-18.015625 z m 0,0"
                     id="path28" />
                </g>
              </g>
            </g>
            <g
               fill="#06186a"
               fill-opacity="1"
               id="g34">
              <g
                 transform="translate(241.76068,178.66918)"
                 id="g33">
                <g
                   id="g32">
                  <path
                     d="m 71.6875,-100.5625 c 11.644531,0 20.941406,3.777344 27.890625,11.328125 6.957035,7.542969 10.437505,17.914063 10.437505,31.109375 V 0 H 79.703125 v -54.03125 c 0,-6.65625 -1.726563,-11.820312 -5.171875,-15.5 -3.449219,-3.6875 -8.085938,-5.53125 -13.90625,-5.53125 -5.824219,0 -10.460938,1.84375 -13.90625,5.53125 -3.449219,3.679688 -5.171875,8.84375 -5.171875,15.5 V 0 H 11.0625 v -99.5 h 30.484375 v 13.203125 c 3.09375,-4.40625 7.253906,-7.882813 12.484375,-10.4375 5.226562,-2.550781 11.113281,-3.828125 17.65625,-3.828125 z m 0,0"
                     id="path31" />
                </g>
              </g>
            </g>
            <g
               fill="#06186a"
               fill-opacity="1"
               id="g37">
              <g
                 transform="translate(361.91518,178.66918)"
                 id="g36">
                <g
                   id="g35">
                  <path
                     d="M 5,-49.921875 C 5,-60.148438 6.925781,-69.125 10.78125,-76.84375 c 3.863281,-7.726562 9.125,-13.671875 15.78125,-17.828125 6.65625,-4.164063 14.085938,-6.250005 22.296875,-6.250005 7.007813,0 13.160156,1.429692 18.453125,4.281255 5.289062,2.855469 9.363281,6.601563 12.21875,11.234375 V -99.5 h 30.48438 V 0 H 79.53125 V -14.09375 C 76.550781,-9.445312 72.414062,-5.695312 67.125,-2.84375 61.84375,0 55.691406,1.421875 48.671875,1.421875 40.585938,1.421875 33.21875,-0.6875 26.5625,-4.90625 19.90625,-9.125 14.644531,-15.125 10.78125,-22.90625 6.925781,-30.695312 5,-39.703125 5,-49.921875 Z M 79.53125,-49.75 c 0,-7.601562 -2.109375,-13.601562 -6.328125,-18 -4.21875,-4.40625 -9.367187,-6.609375 -15.4375,-6.609375 -6.0625,0 -11.203125,2.171875 -15.421875,6.515625 -4.21875,4.335938 -6.328125,10.308594 -6.328125,17.921875 0,7.605469 2.109375,13.636719 6.328125,18.09375 4.21875,4.460937 9.359375,6.6875 15.421875,6.6875 6.070313,0 11.21875,-2.195313 15.4375,-6.59375 4.21875,-4.40625 6.328125,-10.410156 6.328125,-18.015625 z m 0,0"
                     id="path34" />
                </g>
              </g>
            </g>
          </g>
        </g>
      </g>
    </g>
  </g>
  <g
     clip-path="url(#72e183c10f)"
     id="g48"
     transform="translate(-583.62286,-353.74731)">
    <g
       clip-path="url(#d0b52d84ec)"
       id="g47">
      <g
         transform="translate(1065,430)"
         id="g46">
        <g
           clip-path="url(#ede258a38f)"
           id="g45">
          <g
             clip-path="url(#e00b79d0bb)"
             id="g44">
            <g
               clip-path="url(#fccfa957ea)"
               id="g43">
              <path
                 fill="#e57185"
                 d="M 0.257812,0.425781 H 30.765625 V 30.933594 H 0.257812 Z m 0,0"
                 fill-opacity="1"
                 fill-rule="nonzero"
                 id="path42" />
            </g>
          </g>
        </g>
      </g>
    </g>
  </g>
</svg>